<svg width="93" height="25" viewBox="0 0 93 25" fill="none" xmlns="http://www.w3.org/2000/svg">
<path d="M8.10232 8.22559C10.4315 8.8759 12.1872 9.64046 13.3695 10.5193C14.5517 11.3981 15.1428 12.5669 15.1428 14.0257C15.1428 14.9748 14.8834 15.8132 14.3647 16.5408C13.8424 17.272 13.1224 17.8309 12.2049 18.2176C11.2873 18.6042 10.2551 18.7976 9.10811 18.7976C7.85528 18.7976 6.66422 18.5339 5.53491 18.0067C4.40561 17.4794 3.36453 16.7412 2.41168 15.7921V18.4285H0.00308228V12.3384L1.53823 12.2593C2.47344 13.6126 3.61157 14.676 4.95262 15.4493C6.29367 16.2227 7.62589 16.6094 8.9493 16.6094C9.93744 16.6094 10.7456 16.3984 11.3738 15.9766C11.9984 15.5548 12.3107 14.9836 12.3107 14.263C12.3107 13.472 11.8696 12.7901 10.9873 12.2171C10.1051 11.6476 8.60521 11.0905 6.48777 10.5456C4.28209 9.96562 2.66754 9.20457 1.6441 8.2625C0.620671 7.32394 0.108955 6.16919 0.108955 4.79826C0.108955 3.84915 0.370106 3.00902 0.89241 2.27786C1.41118 1.55021 2.11171 0.987773 2.99398 0.590555C3.87625 0.196851 4.83792 0 5.879 0C8.33171 0 10.3168 0.896378 11.8343 2.68914V0.369097H14.2429V6.3801L12.7607 6.4592C12.0196 5.05311 11.1109 3.98976 10.0345 3.26914C8.95812 2.54853 7.77588 2.18822 6.48777 2.18822C5.44669 2.18822 4.59618 2.41143 3.93624 2.85786C3.27277 3.30781 2.94104 3.91067 2.94104 4.66644C2.94104 5.43979 3.34336 6.1024 4.14799 6.65429C4.94909 7.20969 6.2672 7.73346 8.10232 8.22559ZM27.0535 5.69464C28.0946 5.69464 29.0562 5.96707 29.9385 6.51192C30.8208 7.05678 31.5266 7.81782 32.0559 8.79505C32.5853 9.76877 32.85 10.8796 32.85 12.1275C32.85 13.4105 32.5624 14.5618 31.9871 15.5812C31.4154 16.6006 30.6355 17.395 29.6473 17.9645C28.6592 18.5375 27.5652 18.8239 26.3653 18.8239C24.7949 18.8239 23.3479 18.2264 22.0245 17.0312V22.1195H24.9096V24.2022H16.7045V22.1195H19.4836V8.12013H16.7045V6.03737H22.0245V8.4365C22.7127 7.59285 23.4979 6.92496 24.3802 6.43283C25.2625 5.9407 26.1536 5.69464 27.0535 5.69464ZM25.8095 16.6094C26.6388 16.6094 27.3834 16.4195 28.0434 16.0399C28.7068 15.6638 29.2239 15.133 29.5944 14.4475C29.965 13.762 30.1502 12.9799 30.1502 12.1011C30.1502 10.8532 29.792 9.83907 29.0756 9.05869C28.3628 8.2748 27.4505 7.88286 26.3388 7.88286C25.5801 7.88286 24.8302 8.11134 24.089 8.56832C23.3479 9.0253 22.6598 9.65804 22.0245 10.4665V15.0802C23.295 16.0997 24.5567 16.6094 25.8095 16.6094ZM46.0311 5.721H47.1428V10.9938H44.84V8.27832C44.1519 8.27832 43.4019 8.53317 42.5902 9.04288C41.7786 9.55258 40.9404 10.2732 40.0758 11.2047V16.3721H42.9079V18.4548H34.6763V16.3721H37.4819V8.12013H34.6763V6.03737H40.0758V9.14833C41.011 8.07619 41.985 7.23606 42.9979 6.62793C44.0142 6.02331 45.0253 5.721 46.0311 5.721ZM56.0307 18.8239C54.8132 18.8239 53.6751 18.5515 52.6164 18.0067C51.5576 17.4618 50.716 16.6885 50.0913 15.6866C49.4631 14.6848 49.149 13.5423 49.149 12.2593C49.149 10.9587 49.4631 9.81095 50.0913 8.81614C50.716 7.82485 51.5576 7.05678 52.6164 6.51192C53.6751 5.96707 54.8132 5.69464 56.0307 5.69464C57.2306 5.69464 58.3564 5.96707 59.4081 6.51192C60.4562 7.05678 61.2979 7.83013 61.9331 8.83196C62.5684 9.8338 62.886 10.9762 62.886 12.2593C62.886 13.5423 62.5772 14.6848 61.9596 15.6866C61.342 16.6885 60.5091 17.4618 59.461 18.0067C58.4093 18.5515 57.2659 18.8239 56.0307 18.8239ZM56.0307 16.7412C56.8248 16.7412 57.5394 16.5566 58.1747 16.1875C58.8099 15.8184 59.3093 15.2947 59.6728 14.6162C60.0327 13.9413 60.2127 13.1557 60.2127 12.2593C60.2127 11.3629 60.0327 10.5755 59.6728 9.89707C59.3093 9.22215 58.8099 8.70014 58.1747 8.33105C57.5394 7.96195 56.8248 7.7774 56.0307 7.7774C54.8132 7.7774 53.8127 8.18516 53.0293 9.00069C52.2423 9.81974 51.8488 10.9059 51.8488 12.2593C51.8488 13.6126 52.2423 14.6971 53.0293 15.5126C53.8127 16.3317 54.8132 16.7412 56.0307 16.7412ZM80.4873 16.3457L81.0696 18.2176C80.4696 18.5515 79.8079 18.7185 79.0845 18.7185C78.2551 18.7185 77.5846 18.4724 77.0729 17.9803C76.5612 17.4882 76.27 16.7851 76.1994 15.8712C75.3172 16.8379 74.4525 17.5673 73.6056 18.0594C72.7586 18.5515 71.8675 18.7976 70.9323 18.7976C69.5559 18.7976 68.4937 18.3406 67.7455 17.4266C66.9938 16.5127 66.618 15.1681 66.618 13.3929V8.12013H64.13V6.03737H69.2119V13.3139C69.2119 14.2981 69.4183 15.0574 69.8312 15.5917C70.2476 16.1295 70.9146 16.3985 71.8322 16.3985C73.1909 16.3985 74.6378 15.546 76.173 13.8411V8.12013H73.8967V6.03737H78.7668V15.2648C78.7668 16.126 79.0668 16.5566 79.6668 16.5566C80.0197 16.5566 80.2932 16.4863 80.4873 16.3457ZM92.1068 15.6339L93.0067 17.5848C92.3538 17.9715 91.7133 18.2703 91.0851 18.4812C90.4604 18.6921 89.7423 18.7976 88.9306 18.7976C87.5719 18.7976 86.4902 18.3705 85.6856 17.5163C84.8845 16.6656 84.484 15.4493 84.484 13.8675V8.12013H81.7048V6.03737H84.484V2.58368H87.0778V6.03737H91.2068V8.12013H87.0778V13.8939C87.0778 14.7902 87.2807 15.4493 87.6866 15.8712C88.0924 16.293 88.6394 16.5039 89.3276 16.5039C89.8217 16.5039 90.2893 16.4283 90.7304 16.2772C91.1716 16.1295 91.6303 15.9151 92.1068 15.6339Z" fill="#468671"/>
</svg>
