<svg width="94" height="93" viewBox="0 0 94 93" fill="none" xmlns="http://www.w3.org/2000/svg">
<path opacity="0.2" d="M91.25 46.7179C91.25 70.9962 71.4431 90.6857 47 90.6857C22.5569 90.6857 2.75 70.9962 2.75 46.7179C2.75 22.4395 22.5569 2.75 47 2.75C71.4431 2.75 91.25 22.4395 91.25 46.7179Z" stroke="#FA9056" stroke-width="1.5"/>
<path d="M47 2C52.9095 2 58.7611 3.15666 64.2208 5.40395C69.6804 7.65123 74.6412 10.9451 78.8198 15.0976C82.9984 19.25 86.3131 24.1797 88.5746 29.6051C90.836 35.0305 92 40.8454 92 46.7179C92 52.5903 90.836 58.4052 88.5746 63.8306C86.3131 69.2561 82.9984 74.1857 78.8198 78.3382C74.6412 82.4906 69.6804 85.7845 64.2207 88.0318C58.7611 90.2791 52.9095 91.4357 47 91.4357C41.0905 91.4357 35.2389 90.279 29.7792 88.0318C24.3196 85.7845 19.3588 82.4906 15.1802 78.3381C11.0015 74.1857 7.68687 69.256 5.42541 63.8306C3.16395 58.4052 2 52.5903 2 46.7178C2 40.8454 3.16397 35.0305 5.42543 29.6051C7.6869 24.1796 11.0016 19.25 15.1802 15.0975C19.3589 10.9451 24.3196 7.65121 29.7793 5.40393C35.2389 3.15665 41.0905 2 47 2L47 2Z" stroke="#FA9056" stroke-width="3" stroke-linecap="round" stroke-linejoin="round"/>
<rect x="13.25" y="13.1797" width="67.5" height="67.0768" rx="33.5384" fill="#FF592C"/>
<path d="M37.5602 52.3357C36.8882 52.3357 36.2682 52.2037 35.7002 51.9397C35.1402 51.6757 34.6842 51.2397 34.3322 50.6317L35.2322 50.0797C35.4962 50.4637 35.8162 50.7597 36.1922 50.9677C36.5682 51.1757 37.0362 51.2797 37.5962 51.2797C38.1562 51.2797 38.5922 51.1677 38.9042 50.9437C39.2162 50.7197 39.3722 50.3917 39.3722 49.9597C39.3722 49.7037 39.3162 49.4837 39.2042 49.2997C39.0922 49.1077 38.8682 48.9357 38.5322 48.7837C38.1962 48.6317 37.6882 48.4877 37.0082 48.3517C35.4642 48.0157 34.6922 47.2277 34.6922 45.9877C34.6922 45.5077 34.8082 45.0877 35.0402 44.7277C35.2722 44.3677 35.5962 44.0877 36.0122 43.8877C36.4282 43.6797 36.9122 43.5757 37.4642 43.5757C38.1362 43.5757 38.7122 43.7157 39.1922 43.9957C39.6802 44.2757 40.0842 44.6197 40.4042 45.0277L39.5642 45.7117C39.3082 45.4317 39.0162 45.1837 38.6882 44.9677C38.3602 44.7517 37.9482 44.6437 37.4522 44.6437C36.9882 44.6437 36.6002 44.7557 36.2882 44.9797C35.9842 45.1957 35.8322 45.5157 35.8322 45.9397C35.8322 46.1637 35.8802 46.3677 35.9762 46.5517C36.0802 46.7277 36.2682 46.8837 36.5402 47.0197C36.8122 47.1557 37.2082 47.2797 37.7282 47.3917C38.7202 47.5997 39.4322 47.9117 39.8642 48.3277C40.3042 48.7437 40.5242 49.2837 40.5242 49.9477C40.5242 50.4597 40.3962 50.8957 40.1402 51.2557C39.8922 51.6077 39.5442 51.8757 39.0962 52.0597C38.6562 52.2437 38.1442 52.3357 37.5602 52.3357ZM44.1264 52.3117C43.5824 52.3117 43.1704 52.2077 42.8904 51.9997C42.6104 51.7837 42.4704 51.3757 42.4704 50.7757V47.3557H41.3064V46.4197H42.4704V44.3557H43.5384V46.4197H45.2064V47.3557H43.5384V50.5477C43.5384 50.8597 43.6064 51.0717 43.7424 51.1837C43.8864 51.2877 44.0984 51.3397 44.3784 51.3397C44.5224 51.3397 44.6704 51.3197 44.8224 51.2797C44.9824 51.2317 45.1104 51.1837 45.2064 51.1357V52.1317C45.0784 52.1877 44.9144 52.2317 44.7144 52.2637C44.5144 52.2957 44.3184 52.3117 44.1264 52.3117ZM48.0008 52.2757C47.4168 52.2917 46.9328 52.1597 46.5488 51.8797C46.1728 51.5917 45.9848 51.1797 45.9848 50.6437C45.9848 50.2517 46.1088 49.9117 46.3568 49.6237C46.6128 49.3357 46.9368 49.1117 47.3288 48.9517C47.7288 48.7837 48.1408 48.6997 48.5648 48.6997C48.8128 48.6837 49.0408 48.7077 49.2488 48.7717C49.4568 48.8277 49.6368 48.9117 49.7888 49.0237V48.3037C49.7888 47.8557 49.6928 47.5637 49.5008 47.4277C49.3168 47.2917 49.0288 47.2237 48.6367 47.2237C48.3008 47.2237 47.9408 47.2837 47.5568 47.4037C47.1808 47.5237 46.8608 47.6757 46.5968 47.8597L46.0928 47.0197C46.4208 46.8117 46.8088 46.6357 47.2568 46.4917C47.7128 46.3477 48.1728 46.2757 48.6367 46.2757C49.3728 46.2757 49.9208 46.4237 50.2808 46.7197C50.6408 47.0077 50.8208 47.5357 50.8208 48.3037V51.1957C50.8208 51.3477 50.8608 51.4357 50.9408 51.4597C51.0208 51.4837 51.2008 51.4637 51.4808 51.3997V52.0957C51.3768 52.1357 51.2448 52.1757 51.0848 52.2157C50.9248 52.2557 50.7608 52.2757 50.5928 52.2757C50.3368 52.2757 50.1528 52.2277 50.0408 52.1317C49.9288 52.0357 49.8528 51.8637 49.8128 51.6157C49.5968 51.8317 49.3248 51.9917 48.9967 52.0957C48.6688 52.1997 48.3368 52.2597 48.0008 52.2757ZM48.0128 51.3277C48.3488 51.3197 48.6528 51.2717 48.9248 51.1837C49.2048 51.0877 49.4248 50.9557 49.5848 50.7877C49.7448 50.6117 49.8168 50.4037 49.8008 50.1637C49.7848 49.9397 49.6688 49.7797 49.4528 49.6837C49.2448 49.5877 48.9768 49.5477 48.6488 49.5637C48.3528 49.5717 48.0808 49.6277 47.8328 49.7317C47.5848 49.8277 47.3848 49.9557 47.2327 50.1157C47.0888 50.2757 47.0168 50.4557 47.0168 50.6557C47.0248 50.8797 47.1168 51.0517 47.2928 51.1717C47.4688 51.2837 47.7088 51.3357 48.0128 51.3277ZM52.5746 52.1797V46.4197H53.5586L53.6186 47.3197C53.7786 47.0077 54.0186 46.7557 54.3386 46.5637C54.6666 46.3717 55.0186 46.2757 55.3946 46.2757C55.5226 46.2757 55.6426 46.2837 55.7546 46.2997C55.8666 46.3157 55.9626 46.3317 56.0426 46.3477V47.3917C55.9546 47.3677 55.8426 47.3477 55.7066 47.3317C55.5706 47.3157 55.4226 47.3077 55.2626 47.3077C54.8146 47.3077 54.4346 47.4557 54.1226 47.7517C53.8106 48.0397 53.6546 48.4197 53.6546 48.8917V52.1797H52.5746ZM59.3055 52.3117C58.7615 52.3117 58.3495 52.2077 58.0695 51.9997C57.7895 51.7837 57.6495 51.3757 57.6495 50.7757V47.3557H56.4855V46.4197H57.6495V44.3557H58.7175V46.4197H60.3855V47.3557H58.7175V50.5477C58.7175 50.8597 58.7855 51.0717 58.9215 51.1837C59.0655 51.2877 59.2775 51.3397 59.5575 51.3397C59.7015 51.3397 59.8495 51.3197 60.0015 51.2797C60.1615 51.2317 60.2895 51.1837 60.3855 51.1357V52.1317C60.2575 52.1877 60.0935 52.2317 59.8935 52.2637C59.6935 52.2957 59.4975 52.3117 59.3055 52.3117Z" fill="white"/>
</svg>
