<svg width="94" height="93" viewBox="0 0 94 93" fill="none" xmlns="http://www.w3.org/2000/svg">
<ellipse opacity="0.2" cx="47" cy="46.7179" rx="45" ry="44.7179" stroke="#FA9056" stroke-width="1.5"/>
<path d="M47 2C55.9002 2 64.6004 4.62266 72.0007 9.53632C79.4009 14.45 85.1686 21.434 88.5746 29.6051C91.9805 37.7762 92.8717 46.7675 91.1353 55.4419C89.399 64.1163 85.1132 72.0843 78.8198 78.3382C72.5264 84.5921 64.5082 88.851 55.7791 90.5765C47.0499 92.3019 38.0019 91.4164 29.7792 88.0318C21.5566 84.6472 14.5285 78.9156 9.58387 71.5618C4.6392 64.208 2 55.5622 2 46.7179" stroke="#FA9056" stroke-width="3" stroke-linecap="round" stroke-linejoin="round"/>
<rect x="13.25" y="13.1797" width="67.5" height="67.0768" rx="33.5384" fill="#FF592C"/>
<path d="M43.9167 53.0129L49.75 47.1795L43.9167 41.3462" stroke="white" stroke-width="2" stroke-linecap="round" stroke-linejoin="round"/>
</svg>
