<svg width="55" height="39" viewBox="0 0 55 39" fill="none" xmlns="http://www.w3.org/2000/svg">
<g clip-path="url(#clip0_1201_9357)">
<path d="M49.7619 0H5.2381C2.34518 0 0 2.32812 0 5.2V33.8C0 36.6719 2.34518 39 5.2381 39H49.7619C52.6548 39 55 36.6719 55 33.8V5.2C55 2.32812 52.6548 0 49.7619 0Z" fill="white"/>
<path fill-rule="evenodd" clip-rule="evenodd" d="M0 26H55V39H0V26Z" fill="#151515"/>
<path fill-rule="evenodd" clip-rule="evenodd" d="M27.4998 18.2001L23.5712 15.6001L20.9521 18.2001L23.5712 23.4001L26.1902 20.8001H28.8093L31.4283 23.4001L34.0474 18.2001L31.4283 15.6001L27.4998 18.2001Z" fill="#D4AF2C"/>
<path fill-rule="evenodd" clip-rule="evenodd" d="M0 0H55V13H0V0Z" fill="#F93939"/>
</g>
<defs>
<clipPath id="clip0_1201_9357">
<rect width="55" height="39" rx="3" fill="white"/>
</clipPath>
</defs>
</svg>
