<svg width="55" height="39" viewBox="0 0 55 39" fill="none" xmlns="http://www.w3.org/2000/svg">
<g clip-path="url(#clip0_1201_9362)">
<rect width="55" height="39" rx="3" fill="white"/>
<path fill-rule="evenodd" clip-rule="evenodd" d="M0 0H23.5714V18.2H0V0Z" fill="#1A47B8"/>
<path fill-rule="evenodd" clip-rule="evenodd" d="M23.5714 0V2.6H55V0H23.5714ZM23.5714 5.2V7.8H55V5.2H23.5714ZM23.5714 10.4V13H55V10.4H23.5714ZM23.5714 15.6V18.2H55V15.6H23.5714ZM0 20.8V23.4H55V20.8H0ZM0 26V28.6H55V26H0ZM0 31.2V33.8H55V31.2H0ZM0 36.4V39H55V36.4H0Z" fill="#F93939"/>
<path fill-rule="evenodd" clip-rule="evenodd" d="M2.61914 2.6001V5.2001H5.23819V2.6001H2.61914ZM7.85724 2.6001V5.2001H10.4763V2.6001H7.85724ZM13.0953 2.6001V5.2001H15.7144V2.6001H13.0953ZM18.3334 2.6001V5.2001H20.9525V2.6001H18.3334ZM15.7144 5.2001V7.8001H18.3334V5.2001H15.7144ZM10.4763 5.2001V7.8001H13.0953V5.2001H10.4763ZM5.23819 5.2001V7.8001H7.85724V5.2001H5.23819ZM2.61914 7.8001V10.4001H5.23819V7.8001H2.61914ZM7.85724 7.8001V10.4001H10.4763V7.8001H7.85724ZM13.0953 7.8001V10.4001H15.7144V7.8001H13.0953ZM18.3334 7.8001V10.4001H20.9525V7.8001H18.3334ZM2.61914 13.0001V15.6001H5.23819V13.0001H2.61914ZM7.85724 13.0001V15.6001H10.4763V13.0001H7.85724ZM13.0953 13.0001V15.6001H15.7144V13.0001H13.0953ZM18.3334 13.0001V15.6001H20.9525V13.0001H18.3334ZM15.7144 10.4001V13.0001H18.3334V10.4001H15.7144ZM10.4763 10.4001V13.0001H13.0953V10.4001H10.4763ZM5.23819 10.4001V13.0001H7.85724V10.4001H5.23819Z" fill="white"/>
</g>
<defs>
<clipPath id="clip0_1201_9362">
<rect width="55" height="39" rx="3" fill="white"/>
</clipPath>
</defs>
</svg>
