<svg width="193" height="38" viewBox="0 0 193 38" fill="none" xmlns="http://www.w3.org/2000/svg">
<path d="M56.3099 12.8878C49.3726 24.0586 42.4228 30.4206 37.1216 34.0068C35.61 35.0374 34.0264 35.9602 32.3829 36.7682C29.6694 38.0911 26.5549 38.359 23.6523 37.5191C23.4082 37.4534 23.1683 37.3734 22.9263 37.2872C17.4596 35.328 10.1851 31.0586 4.80732 24.7972C3.82229 23.6429 2.9652 22.387 2.25081 21.051C0.430634 17.668 -0.438085 13.7864 0.217591 9.95814C0.559058 8.05246 1.35867 6.25652 2.54865 4.72251C3.48071 3.50087 4.62952 2.45803 5.93872 1.64514C6.00491 1.60411 6.06903 1.56513 6.13522 1.5282C7.57264 0.661644 9.19647 0.144917 10.8739 0.0202871C10.9959 0.00797761 11.1179 0.00592679 11.24 0.00182363C11.362 -0.00227953 11.4468 0.00182363 11.5399 0.00182363H11.604C11.7343 0.00182363 11.8667 0.00182363 11.9991 0.00182363L8.36286 6.43353L7.6534 7.68909C7.08853 8.0214 6.58834 8.45152 6.17658 8.95902C2.85063 13.1032 7.83128 20.6756 17.5527 17.7521C23.3338 16.0124 27.3774 18.1521 29.6009 20.5504C30.3795 21.3607 30.9932 22.3122 31.4087 23.3529C31.4149 23.3599 31.4204 23.3675 31.4253 23.3755C31.4597 21.4799 31.7377 19.5964 32.2526 17.7706C35.3117 7.1208 45.8936 4.8456 48.1646 4.66917C50.7873 4.46401 53.8092 4.10909 55.9459 6.8582C58.0825 9.60732 56.3099 12.8878 56.3099 12.8878Z" fill="#1E252B"/>
<path style="mix-blend-mode:multiply" opacity="0.5" d="M8.18785 6.40841L7.49358 7.67778C6.9408 8.01375 6.45132 8.4486 6.04838 8.96167C6.04838 8.96167 -1.31728 10.397 2.20261 21.1804C0.421413 17.7601 -0.428705 13.8359 0.212932 9.96555C0.547087 8.03892 1.32957 6.22323 2.49408 4.67236L4.86024 4.86318L6.98149 5.34646L8.18785 6.40841Z" fill="url(#paint0_linear_1201_9353)"/>
<path d="M21.9715 11.4667C21.1714 13.5424 19.0919 15.1162 16.8541 15.2194C15.9345 15.2579 15.0212 15.0512 14.207 14.6205C14.2027 14.6154 14.1969 14.6117 14.1905 14.6102C13.0907 14.02 12.1677 13.1459 11.5166 12.078C10.807 10.94 10.4615 9.65123 9.42893 8.72181C8.91179 8.2492 8.28768 7.91033 7.61069 7.73456C7.11928 7.60697 6.60761 7.57819 6.10509 7.64989C-0.271092 8.56484 0.232831 16.8738 2.23824 21.1801C0.42823 17.7743 -0.43564 13.8666 0.216376 10.0127C0.786119 6.61514 2.97253 3.47578 5.90557 1.64587C5.97139 1.60456 6.03515 1.56532 6.10097 1.52814C6.83248 1.10448 7.6059 0.758385 8.40874 0.495458C8.95693 0.317088 9.51904 0.185133 10.0892 0.100974C10.3278 0.0658629 10.5705 0.0410786 10.8132 0.020425C10.9345 0.020425 11.0559 0.00596661 11.1772 0.00183588C11.2986 -0.00229485 11.3829 0.00183588 11.4755 0.00183588H11.5392C12.4092 -0.00169285 13.2763 0.103063 14.1206 0.313707C16.0509 0.808921 17.8245 1.78821 19.275 3.15978C21.4799 5.2396 23.1459 8.4182 21.9715 11.4667Z" fill="url(#paint1_linear_1201_9353)"/>
<path style="mix-blend-mode:multiply" opacity="0.5" d="M37.2064 33.9904C35.6815 35.0254 34.084 35.952 32.426 36.7633C29.6886 38.0918 26.5468 38.3608 23.6187 37.5173C32.6451 37.9562 29.6134 20.4926 29.6134 20.4926C30.3987 21.3062 31.0179 22.2617 31.437 23.3067C31.4433 23.3137 31.4488 23.3213 31.4537 23.3293C31.4884 21.4259 31.7689 19.5345 32.2883 17.7011L33.4276 16.5083C33.4276 16.5083 36.8287 21.3042 37.3149 22.6886C37.6425 23.6363 37.3962 29.6065 37.2064 33.9904Z" fill="url(#paint2_linear_1201_9353)"/>
<path d="M56.3082 12.9911C54.4097 16.0551 52.3234 19.0018 50.061 21.8149C43.0208 30.5345 36.4982 34.7687 32.3589 36.7733C29.6424 38.091 26.5245 38.3578 23.6187 37.5212C31.6031 38.7678 31.1621 29.0898 31.3774 23.4211C31.3836 23.4281 31.3892 23.4356 31.394 23.4436C31.7833 8.00908 45.5242 5.02149 48.1498 4.81101C48.771 4.75993 49.4191 4.70271 50.0672 4.68227C52.1607 4.60871 54.3079 4.90297 55.9396 6.99142C58.0869 9.73584 56.3082 12.9911 56.3082 12.9911Z" fill="url(#paint3_linear_1201_9353)"/>
<g clip-path="url(#clip0_1201_9353)">
<path d="M144.841 20.8485C143.694 20.8485 142.803 21.1264 142.168 21.6822C141.846 21.9768 141.594 22.3404 141.43 22.7463C141.265 23.1522 141.193 23.5901 141.219 24.0279C141.195 24.4312 141.261 24.8346 141.412 25.2089C141.562 25.5831 141.794 25.9187 142.089 26.1911C142.668 26.6982 143.472 26.9527 144.5 26.9547C146.023 26.9547 147.2 26.2296 148.032 24.7794C148.864 23.3291 149.281 21.3008 149.283 18.6945H152.492C152.492 21.0737 152.154 23.107 151.477 24.7946C150.9 26.3499 149.878 27.697 148.541 28.6646C147.162 29.5849 145.535 30.0514 143.883 30.0002C142.008 30.0002 140.559 29.48 139.534 28.4394C138.509 27.3989 137.997 25.9284 137.997 24.0279C137.997 22.3241 138.49 20.9621 139.477 19.9419C140.463 18.9216 141.843 18.3334 143.617 18.1772L144.841 20.8485Z" fill="url(#paint4_linear_1201_9353)"/>
<path d="M68.8211 16.4002C68.3783 16.5178 67.9086 16.4736 67.495 16.2754C67.0814 16.0772 66.7506 15.7378 66.5609 15.3171C66.0486 14.1306 65.5664 12.9197 65.0843 11.7331C64.7528 10.9512 65.4459 10.0445 66.35 9.84069C66.7931 9.71883 67.2648 9.76141 67.6795 9.96069C68.0942 10.16 68.4244 10.5028 68.6101 10.9268C69.1224 12.1134 69.6046 13.2969 70.0867 14.5078C70.4212 15.2897 69.7251 16.1751 68.8211 16.4002ZM92.628 10.7595L86.7516 28.1958C86.7516 29.0173 86.0886 29.5649 85.3654 29.7171H85.3352C85.3233 29.7286 85.3091 29.7373 85.2934 29.7425C85.2778 29.7478 85.2612 29.7495 85.2448 29.7475C84.2202 29.93 83.0449 29.2911 83.0148 28.1958C81.6286 24.1494 80.2424 20.0725 78.8561 16.026C77.5 20.0725 76.1439 24.1189 74.7577 28.1958C74.7312 28.5753 74.5758 28.9338 74.3177 29.211C74.0597 29.4881 73.7148 29.6669 73.3414 29.7171C73.3295 29.7286 73.3152 29.7373 73.2995 29.7425C73.2839 29.7478 73.2673 29.7495 73.2509 29.7475C72.2263 29.93 71.0511 29.2911 71.0209 28.1958C70.2977 26.0965 69.5714 23.9668 68.8482 21.8675C68.0647 19.5857 71.6236 18.6425 72.4072 20.8635C72.5578 21.3503 72.7085 21.8067 72.8893 22.263C74.2454 18.2166 75.6015 14.1397 76.9576 10.0932C76.9877 9.27175 77.6206 8.72411 78.374 8.54156H78.4945C79.5191 8.35902 80.6643 8.9675 80.7245 10.0932C82.1108 14.1427 83.497 18.2196 84.8832 22.263C86.2694 18.0949 87.6858 13.9267 89.072 9.78897C89.8284 7.50408 93.3844 8.47767 92.631 10.7595H92.628Z" fill="#23262F"/>
<path d="M98.2333 12.0919V17.2063H102.998C105.348 17.2063 105.348 20.8877 102.998 20.8877H98.2333V26.0294H102.998C105.348 26.0294 105.348 29.7108 102.998 29.7108H96.4252C95.9398 29.7037 95.4763 29.5059 95.1331 29.1594C94.7898 28.8129 94.5939 28.3449 94.5869 27.8549V10.2421C94.5939 9.75211 94.7898 9.28416 95.1331 8.93763C95.4763 8.59111 95.9398 8.3933 96.4252 8.38623H102.998C105.348 8.38623 105.348 12.098 102.998 12.098L98.2333 12.0919Z" fill="#23262F"/>
<path d="M119.452 29.7168H109.227C108.98 29.7257 108.734 29.6814 108.505 29.587C108.277 29.4926 108.071 29.3502 107.901 29.1692C107.732 28.9976 107.599 28.7931 107.511 28.5682C107.423 28.3433 107.381 28.1027 107.388 27.8609V10.1812C107.388 7.80809 111.065 7.80809 111.065 10.1812V26.002H119.446C121.802 26.005 121.802 29.7168 119.452 29.7168Z" fill="#23262F"/>
<path d="M134.938 29.7168H124.722C124.475 29.7257 124.23 29.6814 124.001 29.587C123.772 29.4926 123.566 29.3502 123.396 29.1692C123.228 28.9976 123.095 28.7931 123.007 28.5682C122.919 28.3433 122.877 28.1027 122.884 27.8609V10.1812C122.884 7.80809 126.561 7.80809 126.561 10.1812V26.002H134.938C137.292 26.005 137.292 29.7168 134.938 29.7168Z" fill="#23262F"/>
<path d="M149.798 29.7779L143.09 21.116C142.204 19.9731 141.451 18.7319 140.845 17.4164C140.289 16.1854 140.005 14.8473 140.013 13.4947C140.013 11.7422 140.476 10.3883 141.402 9.43299C142.328 8.47766 143.641 8 145.341 8C147.038 8 148.344 8.46549 149.258 9.39649C150.172 10.3275 150.631 11.6459 150.633 13.3517V14.4378H147.282V13.3517C147.322 12.7237 147.143 12.1014 146.775 11.5931C146.598 11.3879 146.377 11.2263 146.128 11.1208C145.879 11.0153 145.61 10.9687 145.341 10.9846C145.057 10.9685 144.773 11.0191 144.511 11.1326C144.25 11.2462 144.018 11.4194 143.834 11.6388C143.443 12.1795 143.253 12.8419 143.298 13.5099C143.311 14.5043 143.534 15.4844 143.952 16.385C144.453 17.4724 145.083 18.4941 145.829 19.4275L153.878 29.7718L149.798 29.7779Z" fill="url(#paint5_linear_1201_9353)"/>
<path d="M167.34 20.9853H158.872V28.0742C158.872 30.3865 155.286 30.3865 155.286 28.0742V18.5817C155.286 18.267 155.409 17.9652 155.63 17.7427C155.85 17.5202 156.149 17.3952 156.461 17.3952L160.318 17.3647H167.34C169.63 17.3647 169.63 20.9853 167.34 20.9853Z" fill="#23262F"/>
<path d="M174.753 10.1812V27.8609C174.753 30.234 171.077 30.234 171.077 27.8609V10.1812C171.077 7.80809 174.753 7.80809 174.753 10.1812Z" fill="#23262F"/>
<path d="M191.237 12.0922H186.506C186.506 17.3587 186.506 13.3091 186.506 18.5604C186.506 20.9335 182.829 20.9335 182.829 18.5604C182.829 13.297 182.829 17.3587 182.829 12.0922H178.128C175.748 12.0922 175.778 8.38037 178.128 8.38037H191.237C193.588 8.38646 193.588 12.0922 191.237 12.0922Z" fill="#23262F"/>
<path d="M68.8211 16.4001C68.3783 16.5177 67.9086 16.4735 67.495 16.2753C67.0814 16.0771 66.7506 15.7377 66.5609 15.317C66.0486 14.1305 65.5664 12.9196 65.0843 11.733C64.7528 10.9511 65.4459 10.0444 66.35 9.84059C66.7931 9.71873 67.2648 9.76131 67.6795 9.96059C68.0942 10.1599 68.4244 10.5027 68.6101 10.9267C69.1224 12.1133 69.6046 13.2968 70.0867 14.5077C70.4212 15.2896 69.7251 16.175 68.8211 16.4001Z" fill="url(#paint6_linear_1201_9353)"/>
<path d="M157.033 8.48389H167.31C169.6 8.48389 169.6 12.074 167.31 12.074H157.033C154.731 12.074 154.731 8.48389 157.033 8.48389Z" fill="#23262F"/>
<path d="M184.565 29.6199C184.112 29.5558 183.695 29.3325 183.389 28.9892C183.083 28.6459 182.906 28.2046 182.89 27.7427C182.866 26.4497 182.89 25.1445 182.89 23.8636C182.89 23.0117 183.866 22.4428 184.779 22.604C185.235 22.6628 185.654 22.8846 185.962 23.229C186.269 23.5734 186.444 24.0177 186.455 24.4812C186.479 25.7742 186.473 27.0551 186.455 28.3603C186.47 29.2122 185.493 29.7599 184.565 29.6199Z" fill="url(#paint7_linear_1201_9353)"/>
</g>
<defs>
<linearGradient id="paint0_linear_1201_9353" x1="0.0044505" y1="12.9274" x2="8.18785" y2="12.9274" gradientUnits="userSpaceOnUse">
<stop stop-color="#07C3A6"/>
<stop offset="1" stop-color="#0067FC"/>
</linearGradient>
<linearGradient id="paint1_linear_1201_9353" x1="0.00657932" y1="10.5848" x2="22.3602" y2="10.5848" gradientUnits="userSpaceOnUse">
<stop stop-color="#EA4136"/>
<stop offset="1" stop-color="#FF8C53"/>
</linearGradient>
<linearGradient id="paint2_linear_1201_9353" x1="23.6187" y1="27.2539" x2="37.4755" y2="27.2539" gradientUnits="userSpaceOnUse">
<stop stop-color="#07C3A6"/>
<stop offset="1" stop-color="#0067FC"/>
</linearGradient>
<linearGradient id="paint3_linear_1201_9353" x1="27.2837" y1="34.5214" x2="48.7249" y2="9.26784" gradientUnits="userSpaceOnUse">
<stop stop-color="#EA4136"/>
<stop offset="1" stop-color="#FF8C53"/>
</linearGradient>
<linearGradient id="paint4_linear_1201_9353" x1="139.589" y1="28.7696" x2="146.812" y2="18.3597" gradientUnits="userSpaceOnUse">
<stop stop-color="#EA4136"/>
<stop offset="1" stop-color="#FF8C53"/>
</linearGradient>
<linearGradient id="paint5_linear_1201_9353" x1="141.535" y1="27.5049" x2="155.159" y2="17.3049" gradientUnits="userSpaceOnUse">
<stop stop-color="#EA4136"/>
<stop offset="1" stop-color="#FF8C53"/>
</linearGradient>
<linearGradient id="paint6_linear_1201_9353" x1="65.5679" y1="15.7661" x2="69.9112" y2="11.8189" gradientUnits="userSpaceOnUse">
<stop stop-color="#EA4136"/>
<stop offset="1" stop-color="#FF8C53"/>
</linearGradient>
<linearGradient id="paint7_linear_1201_9353" x1="183.273" y1="28.9043" x2="187.331" y2="26.4789" gradientUnits="userSpaceOnUse">
<stop stop-color="#EA4136"/>
<stop offset="1" stop-color="#FF8C53"/>
</linearGradient>
<clipPath id="clip0_1201_9353">
<rect width="128" height="22" fill="white" transform="translate(65 8)"/>
</clipPath>
</defs>
</svg>
