<svg width="40" height="40" viewBox="0 0 40 40" fill="none" xmlns="http://www.w3.org/2000/svg">
<path d="M25.0544 4.14937C23.5994 3.69104 22.3561 5.28103 23.1278 6.59769C24.3461 8.67435 25.0028 11.0177 25.0028 13.3677C25.0028 20.731 19.0328 26.701 11.6694 26.701C10.2828 26.701 8.88108 26.4777 7.60608 26.076C6.15274 25.6177 4.85608 27.2077 5.62775 28.5243C8.58942 33.5777 14.0044 36.701 20.0028 36.701C29.2078 36.701 36.6694 29.2393 36.6694 20.0344C36.6694 12.6994 31.9344 6.3127 25.0544 4.14937ZM27.7111 9.14936C31.1511 11.581 33.3361 15.5894 33.3361 20.0344C33.3361 27.3977 27.3661 33.3677 20.0028 33.3677C16.6228 33.3677 13.5328 32.0676 11.1494 29.931C11.3261 29.936 11.4928 30.0343 11.6694 30.0343C20.8744 30.0343 28.3361 22.5727 28.3361 13.3677C28.3361 11.9394 28.0828 10.526 27.7111 9.14936Z" fill="#F15223"/>
<path d="M15.0179 6.6665C14.1846 6.6665 13.3512 7.2215 13.3512 8.33317C13.3512 9.07983 12.4312 9.99983 11.6846 9.99983C9.46291 9.99983 9.46291 13.3332 11.6846 13.3332C12.4312 13.3332 13.3512 14.2532 13.3512 14.9998C13.3512 17.2215 16.6846 17.2215 16.6846 14.9998C16.6846 14.2532 17.6046 13.3332 18.3513 13.3332C20.5729 13.3332 20.5729 9.99983 18.3513 9.99983C17.6046 9.99983 16.6846 9.07983 16.6846 8.33317C16.6846 7.2215 15.8512 6.6665 15.0179 6.6665ZM8.35124 16.6665C7.79624 16.6665 7.2579 17.0198 7.2579 17.7598C7.2579 18.2582 6.60958 18.9065 6.11125 18.9065C4.62958 18.9065 4.62958 21.0932 6.11125 21.0932C6.60958 21.0932 7.2579 21.7415 7.2579 22.2398C7.2579 23.7215 9.44459 23.7198 9.44459 22.2398C9.44459 21.7415 10.0929 21.0932 10.5912 21.0932C12.0729 21.0932 12.0729 18.9065 10.5912 18.9065C10.0929 18.9065 9.44459 18.2582 9.44459 17.7598C9.44459 17.0198 8.90624 16.6665 8.35124 16.6665Z" fill="#FA9056"/>
</svg>
